<?xml version="1.0" encoding="UTF-8"?>
<svg id="Layer_1" data-name="Layer 1" xmlns="http://www.w3.org/2000/svg" viewBox="0 0 1042.9 1007.25">
  <defs>
    <style>
      .cls-1 {
        stroke-width: 0px;
      }
    </style>
  </defs>
  <path class="cls-1" d="M869.99,852.95c-3.97-4.41-7.26-8.42-10.91-12.08-72.18-72.24-144.37-144.47-216.73-216.54-2.29-2.29-6.38-3.93-9.62-3.93-28.2,0-56.41.7-84.61.68-34.4-.03-68.8-.77-103.21-.8-31.11-.03-62.23.59-93.34.73-12.1.05-24.2-.32-36.29-.82-1.98-.08-4.31-1.42-5.78-2.89-48.79-48.65-97.5-97.38-146.22-146.1-32.78-32.78-65.56-65.55-98.33-98.34-6.71-6.71-6.71-7.65-.06-14.29,15.85-15.84,31.74-31.65,48.06-47.91,1.97,1.87,3.93,3.65,5.8,5.52,73.24,73.22,146.5,146.42,219.61,219.78,4.52,4.54,8.95,6.57,15.48,6.56,103.62-.21,207.23-.1,310.85-.26,5.63,0,9.64,1.54,13.61,5.59,18.2,18.61,36.71,36.91,55.11,55.31,61.93,61.94,123.87,123.88,185.81,185.82,6.94,6.94,6.92,7.75-.13,14.82-15.93,15.96-31.87,31.92-49.07,49.14Z"/>
  <path class="cls-1" d="M990.11,542.46c-64.13-64.14-127.41-127.42-190.68-190.7-11.74-11.75-23.67-23.32-35.15-35.32-4.09-4.27-8.24-5.99-14.21-5.98-103.63.18-207.26.1-310.89.25-5.15,0-8.7-1.53-12.29-5.14-67.74-67.94-135.6-135.75-203.44-203.6-13.46-13.47-26.89-26.97-40.41-40.38-3.23-3.21-4.86-6.33-1.05-10.14,16.83-16.79,33.67-33.58,51.6-51.46,2.04,2.62,3.64,5.19,5.73,7.28,72.89,72.97,145.85,145.85,218.66,218.9,4.51,4.52,8.92,6.6,15.47,6.58,103.63-.21,207.26-.11,310.89-.27,5.67,0,9.64,1.65,13.62,5.66,40.19,40.45,80.56,80.72,120.88,121.04,36.63,36.63,73.26,73.26,109.89,109.88,4.29,4.29,8.97,8.28,12.67,13.03,1.46,1.88,2.07,6.77.8,8.09-17.06,17.58-34.52,34.77-52.09,52.27Z"/>
  <path class="cls-1" d="M810.8,1007.25c-29.93-29.94-59.33-59.37-88.75-88.8-46.09-46.1-92.22-92.15-138.21-138.35-3.6-3.61-7.18-5.14-12.32-5.13-103.6.14-207.2.05-310.8.23-5.96.01-10.05-1.76-14.21-5.95-51.57-51.83-103.31-103.49-155.01-155.19-28.66-28.66-57.32-57.32-85.97-85.98-7.41-7.42-7.4-7.66.21-15.3,15.56-15.62,31.13-31.24,47.28-47.44,2.09,2,4.01,3.76,5.85,5.6,73.61,73.6,147.25,147.18,220.74,220.91,4.02,4.04,8.01,5.55,13.61,5.54,104.1-.15,208.19-.07,312.29-.21,5.11,0,8.71,1.41,12.34,5.04,80.33,80.53,160.78,160.93,241.21,241.37q7.67,7.67.17,15.14c-15.94,15.95-31.86,31.92-48.42,48.51Z"/>
  <path class="cls-1" d="M930.53,697.57c-23.09-23.11-45.42-45.48-67.77-67.83-53.1-53.12-106.24-106.19-159.24-159.41-3.62-3.64-7.22-5.02-12.33-5.02-103.86.14-207.72.07-311.58.21-5.09,0-8.72-1.33-12.36-4.97-80.66-80.86-161.44-161.6-242.2-242.37-7-7-6.98-7.74.12-14.85,15.74-15.77,31.49-31.52,47.55-47.6,2.25,2.12,4.22,3.89,6.09,5.77,72.92,72.9,145.89,145.76,218.62,218.85,5.37,5.4,10.65,7.35,18.14,7.34,102.53-.23,205.07-.09,307.6-.31,6.8-.01,11.38,2.09,16.1,6.82,79.73,79.99,159.63,159.82,239.48,239.68,7.44,7.44,7.43,7.83,0,15.28-15.91,15.96-31.82,31.92-48.25,48.41Z"/>
</svg>